<svg xmlns="http://www.w3.org/2000/svg" width="667" height="567" fill="none"><path fill="#fff" fill-rule="evenodd" d="M178.4 66.167C192.467 42.033 199.5 30 209.3 21.233a83.334 83.334 0 0 1 29.933-17.2C251.733 0 265.667 0 293.567 0h66.7C388.2 0 415.6 0 428.1 4.033a83.326 83.326 0 0 1 29.933 17.2c9.8 8.767 16.834 20.8 30.9 44.934L508.667 100h25c46.666 0 70 0 87.833 9.067a83.329 83.329 0 0 1 36.4 36.433c9.1 17.833 9.1 41.167 9.1 87.833v200c0 46.667 0 70-9.1 87.834a83.338 83.338 0 0 1-36.4 36.4c-17.833 9.1-41.167 9.1-87.833 9.1h-400c-46.667 0-70 0-87.834-9.1a83.336 83.336 0 0 1-36.433-36.4C.333 503.333.333 480 .333 433.333v-200c0-46.666 0-70 9.067-87.833a83.33 83.33 0 0 1 36.433-36.433C63.667 100 87 100 133.667 100h25L178.4 66.167Zm155.267 402.166a158.333 158.333 0 1 0 0-316.666 158.333 158.333 0 0 0 0 316.666Zm90-158.333a90 90 0 1 1-180.001 0 90 90 0 0 1 180.001 0Z" clip-rule="evenodd"/></svg>